<svg xmlns="http://www.w3.org/2000/svg" viewBox="0 0 120 120" width="120" height="120">
  <rect width="120" height="120" rx="60" fill="#7C3AED" />
  <circle cx="60" cy="46" r="20" fill="#FED7AA" />
  <!-- Female hairstyle -->
  <path d="M38 42 C36 24, 84 24, 82 42 C82 58, 78 62, 78 62 L42 62 C42 62, 38 58, 38 42 Z" fill="#312E81" />
  <circle cx="53" cy="45" r="2.5" fill="#1F2937" />
  <circle cx="67" cy="45" r="2.5" fill="#1F2937" />
  <path d="M55 54 C58 56, 62 56, 65 54" stroke="#BE185D" stroke-width="2" stroke-linecap="round" fill="none" />
  <!-- Blazer / Formal -->
  <path d="M25 105 C25 78, 42 68, 60 68 C78 68, 95 78, 95 105 Z" fill="#4C1D95" />
  <polygon points="60,68 52,95 68,95" fill="#F8FAFC" />
</svg>
