<svg xmlns="http://www.w3.org/2000/svg" viewBox="0 0 120 120" width="120" height="120">
  <rect width="120" height="120" rx="60" fill="#059669" />
  <circle cx="60" cy="45" r="22" fill="#FDE68A" />
  <!-- Turban / Pagri -->
  <path d="M38 38 C38 20, 82 20, 82 38 C82 45, 38 45, 38 38 Z" fill="#D97706" />
  <circle cx="60" cy="30" r="14" fill="#B45309" />
  <circle cx="53" cy="45" r="3" fill="#1F2937" />
  <circle cx="67" cy="45" r="3" fill="#1F2937" />
  <!-- Mustache -->
  <path d="M48 55 C54 58, 60 54, 60 54 C60 54, 66 58, 72 55" stroke="#451A03" stroke-width="3" stroke-linecap="round" fill="none" />
  <!-- Kurta body -->
  <path d="M25 105 C25 78, 42 68, 60 68 C78 68, 95 78, 95 105 Z" fill="#F8FAFC" />
  <path d="M58 68 L58 95" stroke="#D97706" stroke-width="2" />
</svg>
